<svg viewBox="0 0 1440 1018" fill="none" xmlns="http://www.w3.org/2000/svg">
<path d="M-49.2256 100.515C164.292 -539.777 603.642 -839.93 1158.43 -422.877C1507.55 -160.437 1708.44 -289.55 1574.08 113.368C1360.56 753.661 996.902 967.423 442.111 550.37C92.9956 287.93 -183.586 503.434 -49.2256 100.515Z" fill="url(#paint0_linear)"/>
<path d="M-178.213 -208.318C210.925 -778.581 729.682 -961.813 1164.11 -418.384C1437.49 -76.4193 1672.43 -152.289 1427.56 206.562C1038.42 776.825 618.648 894.737 184.217 351.308C-89.1582 9.34258 -423.088 150.533 -178.213 -208.318Z" fill="url(#paint1_linear)"/>
<path d="M-178.213 -208.318C210.925 -778.581 729.682 -961.813 1164.11 -418.384C1437.49 -76.4193 1672.43 -152.289 1427.56 206.562C1038.42 776.825 618.648 894.737 184.217 351.308C-89.1582 9.34258 -423.088 150.533 -178.213 -208.318Z" fill="url(#paint2_linear)"/>
<path d="M-178.213 -208.318C210.925 -778.581 729.682 -961.813 1164.11 -418.384C1437.49 -76.4193 1672.43 -152.289 1427.56 206.562C1038.42 776.825 618.648 894.737 184.217 351.308C-89.1582 9.34258 -423.088 150.533 -178.213 -208.318Z" fill="url(#paint3_linear)"/>
<path d="M-178.213 -208.318C210.925 -778.581 729.682 -961.813 1164.11 -418.384C1437.49 -76.4193 1672.43 -152.289 1427.56 206.562C1038.42 776.825 618.648 894.737 184.217 351.308C-89.1582 9.34258 -423.088 150.533 -178.213 -208.318Z" fill="url(#paint4_linear)"/>
<defs>
<linearGradient id="paint0_linear" x1="543.644" y1="-601.196" x2="947.019" y2="787.072" gradientUnits="userSpaceOnUse">
<stop offset="0.375" stop-color="#00D1FF"/>
<stop offset="1" stop-color="#5FB14D"/>
</linearGradient>
<linearGradient id="paint1_linear" x1="-291.712" y1="-715.142" x2="1889.82" y2="41.4983" gradientUnits="userSpaceOnUse">
<stop stop-color="#3913B8"/>
<stop offset="0.177083" stop-color="#3913B8" stop-opacity="0.822917"/>
<stop offset="1" stop-color="#A255FF"/>
</linearGradient>
<linearGradient id="paint2_linear" x1="-291.712" y1="-715.142" x2="2017.56" y2="107.078" gradientUnits="userSpaceOnUse">
<stop stop-color="#3913B8"/>
<stop offset="0.370049" stop-color="#3913B8" stop-opacity="0.822917"/>
<stop offset="1" stop-color="#A255FF"/>
</linearGradient>
<linearGradient id="paint3_linear" x1="-291.712" y1="-715.142" x2="2017.56" y2="107.078" gradientUnits="userSpaceOnUse">
<stop stop-color="#3913B8"/>
<stop offset="0.370049" stop-color="#3913B8" stop-opacity="0.822917"/>
<stop offset="1" stop-color="#A255FF"/>
</linearGradient>
<linearGradient id="paint4_linear" x1="-339.61" y1="-713.582" x2="2034.28" y2="127.342" gradientUnits="userSpaceOnUse">
<stop stop-color="#9F4DB1"/>
<stop offset="1" stop-color="#7C23ED"/>
</linearGradient>
</defs>
</svg>