<svg width="70" height="70" viewBox="0 0 70 70" fill="none" xmlns="http://www.w3.org/2000/svg">
<g clip-path="url(#clip0)">
<path d="M69.9996 35C70.005 39.4962 69.1418 43.9511 67.4574 48.1198C67.4533 48.1291 67.4501 48.1374 67.446 48.1467V48.1478C66.3138 50.9392 64.8244 53.572 63.0151 55.9803C62.6661 56.4463 62.3061 56.9026 61.9351 57.3493C61.7994 57.5129 61.6617 57.6754 61.524 57.8359C60.8146 58.6592 60.0684 59.4479 59.2852 60.2021C59.103 60.3781 58.9186 60.5521 58.7322 60.724C58.6888 60.7643 58.6453 60.8037 58.6018 60.8441C57.6896 61.6776 56.7338 62.4623 55.7386 63.1947C55.0707 63.6886 54.3852 64.1577 53.6821 64.6019C53.5278 64.7003 53.3725 64.7969 53.2161 64.8919C52.9448 65.0575 52.6711 65.2194 52.395 65.3775C52.0346 65.5846 51.6698 65.7852 51.3004 65.9791C51.1513 66.0589 51.0012 66.1355 50.851 66.2121C50.6315 66.325 50.4109 66.4337 50.1883 66.5404C50.15 66.559 50.1117 66.5777 50.0734 66.5953C49.9284 66.6657 49.7814 66.734 49.6343 66.8024C47.7193 67.6856 45.7277 68.3923 43.6843 68.9138C43.6729 68.9169 43.6626 68.9189 43.6512 68.922C43.5176 68.9562 43.383 68.9893 43.2484 69.0214C43.1479 69.0463 43.0464 69.0701 42.945 69.0929C42.9325 69.097 42.9196 69.1001 42.9067 69.1022C42.6985 69.1509 42.4904 69.1975 42.2802 69.2399C42.1621 69.2648 42.0441 69.2896 41.926 69.3135C41.8546 69.329 41.7821 69.3425 41.7107 69.3559C41.6206 69.3735 41.5315 69.3901 41.4414 69.4077C41.3917 69.418 41.342 69.4263 41.2913 69.4346C41.1774 69.4553 41.0635 69.476 40.9506 69.4957C40.758 69.5288 40.5633 69.5609 40.3697 69.5899C40.2288 69.6117 40.0891 69.6324 39.9482 69.6521C39.7825 69.6759 39.6169 69.6976 39.4501 69.7183C39.4046 69.7256 39.359 69.7308 39.3135 69.7359C39.2544 69.7432 39.1954 69.7504 39.1364 69.7577C39.0173 69.7722 38.8982 69.7856 38.7781 69.7981C38.716 69.8053 38.6549 69.8115 38.5928 69.8177C38.4747 69.8302 38.3567 69.8416 38.2386 69.8519C38.0864 69.8664 37.9342 69.8788 37.7809 69.8913C37.5945 69.9058 37.4092 69.9192 37.2217 69.9306C37.1016 69.9379 36.9815 69.9451 36.8604 69.9513C36.5518 69.9679 36.2432 69.9793 35.9325 69.9876C35.7783 69.9917 35.6229 69.9948 35.4676 69.9969H35.4645C35.3102 69.999 35.1549 70 34.9996 70C33.4255 70.0007 31.8532 69.8955 30.2932 69.6852C29.149 69.532 28.023 69.3242 26.9154 69.0618C26.8709 69.0515 26.8263 69.0411 26.7828 69.0297C26.671 69.0038 26.5602 68.9759 26.4494 68.9479C26.351 68.9231 26.2537 68.8972 26.1553 68.8713C23.62 68.2115 21.1676 67.267 18.8447 66.0558C18.8333 66.0496 18.8209 66.0433 18.8095 66.0371C18.7422 66.0019 18.6759 65.9678 18.6096 65.9315C18.4636 65.8549 18.3183 65.7769 18.1737 65.6975C17.3504 65.245 16.5483 64.761 15.7672 64.2457C15.5663 64.1142 15.3675 63.9806 15.1707 63.845C15.1075 63.8015 15.0454 63.758 14.9833 63.7145C14.918 63.6689 14.8528 63.6234 14.7886 63.5778C14.6178 63.4567 14.4479 63.3341 14.2791 63.2102C13.5802 62.6966 12.9019 62.1578 12.2444 61.5938C9.91372 59.5978 7.85424 57.3054 6.11834 54.775C5.51257 53.8927 4.94719 52.9822 4.42219 52.0433C1.51274 46.8347 -0.0101208 40.9661 -0.000442436 35C-0.000442436 15.6703 15.6698 0 34.9996 0C54.3293 0 69.9996 15.6703 69.9996 35Z" fill="#9F4DB1"/>
<path d="M69.9996 35C70.005 39.4962 69.1418 43.9511 67.4574 48.1198C67.4533 48.1291 67.4501 48.1374 67.446 48.1467V48.1478C66.3138 50.9392 64.8244 53.572 63.0151 55.9803C62.6661 56.4463 62.3061 56.9026 61.9351 57.3493C61.7994 57.5129 61.6617 57.6754 61.524 57.8359C60.8146 58.6592 60.0684 59.4479 59.2852 60.2021C59.103 60.3781 58.9186 60.5521 58.7322 60.724C58.6888 60.7643 58.6453 60.8037 58.6018 60.8441C57.6896 61.6776 56.7338 62.4623 55.7386 63.1947C55.0707 63.6886 54.3852 64.1577 53.6821 64.6019C53.5278 64.7003 53.3725 64.7969 53.2161 64.8919C52.9448 65.0575 52.6711 65.2194 52.395 65.3775C52.0346 65.5846 51.6698 65.7852 51.3004 65.9791C51.1513 66.0589 51.0012 66.1355 50.851 66.2121C50.6315 66.325 50.4109 66.4337 50.1883 66.5404C50.15 66.559 50.1117 66.5777 50.0734 66.5953C49.9284 66.6657 49.7814 66.734 49.6343 66.8024C47.7193 67.6856 45.7277 68.3923 43.6843 68.9138C43.6729 68.9169 43.6626 68.9189 43.6512 68.922C43.5176 68.9562 43.383 68.9893 43.2484 69.0214C43.1479 69.0463 43.0464 69.0701 42.945 69.0929C42.9325 69.097 42.9196 69.1001 42.9067 69.1022C42.6985 69.1509 42.4904 69.1975 42.2802 69.2399C42.1621 69.2648 42.0441 69.2896 41.926 69.3135C41.8546 69.329 41.7821 69.3425 41.7107 69.3559C41.6206 69.3735 41.5315 69.3901 41.4414 69.4077C41.3917 69.418 41.342 69.4263 41.2913 69.4346C41.1774 69.4553 41.0635 69.476 40.9506 69.4957C40.758 69.5288 40.5633 69.5609 40.3697 69.5899C40.2288 69.6117 40.0891 69.6324 39.9482 69.6521C39.7825 69.6759 39.6169 69.6976 39.4501 69.7183C39.4046 69.7256 39.359 69.7308 39.3135 69.7359C39.2544 69.7432 39.1954 69.7504 39.1364 69.7577C39.0173 69.7722 38.8982 69.7856 38.7781 69.7981C38.716 69.8053 38.6549 69.8115 38.5928 69.8177C38.4747 69.8302 38.3567 69.8416 38.2386 69.8519C38.0864 69.8664 37.9342 69.8788 37.7809 69.8913C37.5945 69.9058 37.4092 69.9192 37.2217 69.9306C37.1016 69.9379 36.9815 69.9451 36.8604 69.9513C36.5518 69.9679 36.2432 69.9793 35.9325 69.9876C35.7783 69.9917 35.6229 69.9948 35.4676 69.9969H35.4645C35.3102 69.999 35.1549 70 34.9996 70C33.4255 70.0007 31.8532 69.8955 30.2932 69.6852C29.149 69.532 28.023 69.3242 26.9154 69.0618C26.8709 69.0515 26.8263 69.0411 26.7828 69.0297C26.671 69.0038 26.5602 68.9759 26.4494 68.9479C26.351 68.9231 26.2537 68.8972 26.1553 68.8713C23.62 68.2115 21.1676 67.267 18.8447 66.0558C18.8333 66.0496 18.8209 66.0433 18.8095 66.0371C18.7422 66.0019 18.6759 65.9678 18.6096 65.9315C18.4636 65.8549 18.3183 65.7769 18.1737 65.6975C17.3504 65.245 16.5483 64.761 15.7672 64.2457C15.5663 64.1142 15.3675 63.9806 15.1707 63.845C15.1075 63.8015 15.0454 63.758 14.9833 63.7145C14.918 63.6689 14.8528 63.6234 14.7886 63.5778C14.6178 63.4567 14.4479 63.3341 14.2791 63.2102C13.5802 62.6966 12.9019 62.1578 12.2444 61.5938C9.91372 59.5978 7.85424 57.3054 6.11834 54.775C5.51257 53.8927 4.94719 52.9822 4.42219 52.0433C1.51274 46.8347 -0.0101208 40.9661 -0.000442436 35C-0.000442436 15.6703 15.6698 0 34.9996 0C54.3293 0 69.9996 15.6703 69.9996 35Z" fill="url(#paint0_linear)"/>
<path opacity="0.2" d="M40.6279 69.0298C40.7398 69.0039 40.8506 68.9759 40.9614 68.948C41.0597 68.9231 41.1571 68.8972 41.2554 68.8713C41.2606 68.6653 41.2679 68.4385 41.2751 68.1931C41.3362 66.2712 41.4801 63.1771 41.8198 59.4493C41.8384 59.2494 41.8571 59.0482 41.8757 58.8456C41.9969 57.5823 42.1387 56.2537 42.3086 54.8765C42.3137 54.8309 42.3199 54.7864 42.3251 54.7408C42.4628 53.6246 42.6192 52.4783 42.7952 51.3102C42.9185 50.4932 43.0517 49.6672 43.1949 48.8323C43.2053 48.7743 43.2157 48.7153 43.226 48.6573C43.2674 48.416 43.3099 48.1758 43.3534 47.9335C43.4745 47.2593 43.604 46.5811 43.7396 45.9028C44.217 43.517 44.7855 41.1167 45.4637 38.7817C46.1527 36.36 47.0013 33.9866 48.0038 31.6771C48.7814 29.8829 49.7076 28.157 50.7728 26.5172C50.7883 26.4933 50.8038 26.4706 50.8194 26.4467C52.181 24.3954 53.7374 22.6547 55.5143 21.3531L55.1457 20.8499C53.4433 22.0976 51.8818 23.7579 50.4611 25.8306C50.4538 25.841 50.4476 25.8503 50.4404 25.8607C49.372 27.4449 48.4395 29.1166 47.6528 30.858C46.5994 33.1872 45.7108 35.5876 44.9936 38.0413C44.3143 40.3215 43.7051 42.7918 43.1659 45.4524C42.9765 46.3895 42.7956 47.3498 42.6233 48.3332C42.5944 48.5009 42.5654 48.6687 42.5364 48.8374C42.5364 48.8395 42.5353 48.8426 42.5353 48.8447C42.4908 49.1036 42.4483 49.3624 42.4049 49.6244C42.2972 50.284 42.1957 50.9385 42.1004 51.5877C41.9534 52.588 41.8205 53.5711 41.7017 54.5368C41.6624 54.8558 41.6244 55.1723 41.5878 55.4864C41.5361 55.9296 41.4871 56.3669 41.4408 56.7984C41.3756 57.399 41.3158 57.9868 41.2617 58.5619L41.2461 58.7203C41.2378 58.8114 41.2296 58.9025 41.2213 58.9926C40.8009 63.5271 40.6693 67.1897 40.6279 69.0298Z" fill="black"/>
<path opacity="0.2" d="M48.5662 66.0557C48.5776 66.0495 48.59 66.0433 48.6014 66.0371C48.8147 65.9263 49.0259 65.8134 49.2372 65.6974C49.3065 64.8711 49.3997 63.963 49.5219 63.0082C49.5478 62.8115 49.5737 62.6116 49.6027 62.4107C49.6172 62.3031 49.6327 62.1943 49.6483 62.0846C49.7704 61.2437 49.9154 60.376 50.0894 59.5041C50.7966 55.9461 51.9709 52.3094 53.9207 50.0644C54.0253 49.9433 54.132 49.8273 54.2428 49.7144C54.5173 49.4291 54.8156 49.1676 55.1343 48.9326L54.7657 48.4304C54.3208 48.7595 53.9113 49.1339 53.5438 49.5477C53.4144 49.6917 53.288 49.8415 53.1648 49.9971C51.3703 52.2556 50.2499 55.5992 49.552 58.9097C49.3697 59.7733 49.2165 60.6359 49.086 61.4757C49.0529 61.6952 49.0211 61.9127 48.9907 62.128C48.7888 63.5508 48.6552 64.8949 48.5662 66.0557Z" fill="black"/>
<path opacity="0.2" d="M58.9965 21.3388C60.7173 21.3388 62.1122 19.9438 62.1122 18.2231C62.1122 16.5024 60.7173 15.1074 58.9965 15.1074C57.2758 15.1074 55.8809 16.5024 55.8809 18.2231C55.8809 19.9438 57.2758 21.3388 58.9965 21.3388Z" fill="black"/>
<path opacity="0.2" d="M57.9934 48.1591C59.7141 48.1591 61.109 46.7641 61.109 45.0434C61.109 43.3227 59.7141 41.9277 57.9934 41.9277C56.2726 41.9277 54.8777 43.3227 54.8777 45.0434C54.8777 46.7641 56.2726 48.1591 57.9934 48.1591Z" fill="black"/>
<path opacity="0.2" d="M46.6273 23.4564C47.288 27.1839 45.8295 30.5591 45.8295 30.5591C45.8295 30.5591 43.2997 27.8908 42.639 24.1633C41.9783 20.4358 43.4369 17.0605 43.4369 17.0605C43.4369 17.0605 45.9666 19.7289 46.6273 23.4564Z" fill="black"/>
<path opacity="0.2" d="M56.9818 32.3046C53.4264 33.6047 49.8538 32.7704 49.8538 32.7704C49.8538 32.7704 52.0455 29.8283 55.6009 28.5282C59.1563 27.2281 62.7289 28.0624 62.7289 28.0624C62.7289 28.0624 60.5372 31.0046 56.9818 32.3046Z" fill="black"/>
<path opacity="0.2" d="M57.5847 56.0552C55.0927 56.9665 52.585 56.372 52.585 56.372C52.585 56.372 54.1177 54.3001 56.6097 53.3889C59.1018 52.4776 61.6095 53.0721 61.6095 53.0721C61.6095 53.0721 60.0767 55.144 57.5847 56.0552Z" fill="black"/>
<path d="M45.5581 55.531L45.6845 55.5962C45.672 55.7309 45.642 55.8137 45.5581 55.531Z" fill="#2F2E41"/>
<path d="M45.7247 55.5742C45.7257 55.5887 45.7278 55.6042 45.7288 55.6187L45.6843 55.596C45.6854 55.5825 45.6864 55.568 45.6885 55.5535C45.6988 55.3723 45.6864 55.1579 45.7247 55.5742Z" fill="#2F2E41"/>
<path d="M32.2749 50.6206C41.6659 50.6206 49.2788 43.0077 49.2788 33.6167C49.2788 24.2257 41.6659 16.6128 32.2749 16.6128C22.8839 16.6128 15.271 24.2257 15.271 33.6167C15.271 43.0077 22.8839 50.6206 32.2749 50.6206Z" fill="#2F2E41"/>
<path d="M33.6745 49.9275C39.3616 49.9275 43.972 45.3172 43.972 39.63C43.972 33.9429 39.3616 29.3325 33.6745 29.3325C27.9873 29.3325 23.377 33.9429 23.377 39.63C23.377 45.3172 27.9873 49.9275 33.6745 49.9275Z" fill="#D0CDE1"/>
<path d="M57.1879 59.3665L57.1755 59.3696L54.7804 59.9443L49.7934 61.1413L49.113 61.3049L41.529 63.1243L40.8849 63.2796L22.4851 67.695C21.2413 67.2192 20.026 66.6719 18.8453 66.0558C18.8339 66.0496 18.8215 66.0434 18.8101 66.0372C18.7428 66.002 18.6765 65.9678 18.6103 65.9315C18.4643 65.8549 18.3189 65.7769 18.1743 65.6975C17.3511 65.245 16.5489 64.7611 15.7678 64.2457C15.5669 64.1142 15.3681 63.9807 15.1714 63.845C15.1082 63.8015 15.0461 63.758 14.9839 63.7145C14.9187 63.669 14.8535 63.6234 14.7893 63.5778C14.6184 63.4567 14.4486 63.3342 14.2798 63.2102C16.0671 59.9619 20.323 57.8028 24.5789 56.6213C27.791 55.7287 28.4972 52.7952 28.4361 50.1847C28.4206 49.5892 28.3701 48.9952 28.285 48.4057C28.1552 47.4674 27.9488 46.5413 27.6678 45.6367L37.9659 45.9805L39.0283 48.4284C38.9992 48.6973 38.9899 48.968 39.0003 49.2382C39.0811 51.246 40.3206 52.5446 41.85 53.3823C42.0489 53.491 42.2528 53.5925 42.4599 53.6867C44.9679 54.8268 47.9202 54.9045 47.9202 54.9045C48.8191 54.8051 49.7272 54.8222 50.6218 54.9552C50.8392 54.9884 51.0505 55.028 51.2555 55.0743C52.4526 55.3418 53.5834 55.8479 54.5805 56.5623C54.9613 56.8332 55.3216 57.1319 55.6585 57.456C56.2571 58.0163 56.7722 58.6597 57.1879 59.3665Z" fill="#D0CDE1"/>
<path d="M58.7326 60.724C58.6891 60.7644 58.6457 60.8038 58.6022 60.8441C57.69 61.6777 56.7342 62.4623 55.739 63.1947C55.0711 63.6887 54.3856 64.1577 53.6825 64.602C53.5282 64.7003 53.3729 64.797 53.2165 64.8919C52.9452 65.0576 52.6715 65.2195 52.3954 65.3776C52.035 65.5847 51.6702 65.7852 51.3008 65.9792C51.1517 66.0589 51.0016 66.1356 50.8514 66.2122C50.6319 66.3251 50.4113 66.4338 50.1887 66.5404C50.1504 66.5591 50.1121 66.5777 50.0738 66.5953L49.6357 66.2319L54.7801 59.9443L55.8146 58.6799C55.8146 58.6799 56.2278 58.6799 57.1752 59.3696C57.6989 59.7593 58.1938 60.1864 58.656 60.6474C58.6809 60.6733 58.7067 60.6981 58.7326 60.724Z" fill="#D0CDE1"/>
<path d="M58.6602 60.6536C58.6463 60.7186 58.6269 60.7823 58.6022 60.8441C57.69 61.6777 56.7343 62.4623 55.7391 63.1947C54.8756 63.506 53.9797 63.7189 53.0685 63.8295C53.0685 63.8295 53.1462 64.2188 53.2166 64.8919C52.9453 65.0576 52.6716 65.2194 52.3954 65.3775C52.0351 65.5846 51.6702 65.7852 51.3009 65.9792C51.1518 66.0589 51.0017 66.1355 50.8515 66.2121C50.632 66.325 50.4114 66.4337 50.1888 66.5404C50.1505 66.559 50.1122 66.5777 50.0738 66.5953C49.9289 66.6657 49.7818 66.734 49.6348 66.8024C47.7198 67.6856 45.7282 68.3924 43.6848 68.9138C43.6734 68.9169 43.663 68.919 43.6517 68.9221C43.5181 68.9562 43.3835 68.9894 43.2488 69.0215C43.1484 69.0463 43.0469 69.0701 42.9454 69.0929C42.9329 69.097 42.9201 69.1001 42.9071 69.1022C42.699 69.1509 42.4909 69.1975 42.2807 69.24C42.1626 69.2648 42.0446 69.2897 41.9265 69.3135C41.8551 69.329 41.7826 69.3425 41.7111 69.3559C41.621 69.3735 41.532 69.3901 41.4419 69.4077C41.3922 69.4181 41.3425 69.4263 41.2917 69.4346C41.1778 69.4553 41.0639 69.4761 40.9511 69.4957C40.7585 69.5289 40.5638 69.561 40.3701 69.59C40.2293 69.6117 40.0895 69.6324 39.9487 69.6521C39.783 69.6759 39.6173 69.6977 39.4506 69.7184C39.4051 69.7256 39.3595 69.7308 39.3139 69.736C39.2549 69.7432 39.1959 69.7505 39.1369 69.7577C39.0178 69.7722 38.8987 69.7857 38.7786 69.7981C38.7165 69.8053 38.6554 69.8116 38.5932 69.8178C38.4752 69.8302 38.3571 69.8416 38.2391 69.8519C38.0869 69.8664 37.9346 69.8789 37.7814 69.8913C37.595 69.9058 37.4097 69.9192 37.2222 69.9306C37.1021 69.9379 36.982 69.9451 36.8608 69.9514C36.5522 69.9679 36.2437 69.9793 35.933 69.9876C35.7787 69.9917 35.6234 69.9948 35.4681 69.9969H35.465C35.3107 69.999 35.1554 70 35 70C33.426 70.0007 31.8536 69.8955 30.2937 69.6852C29.1494 69.532 28.0235 69.3242 26.9159 69.0619C26.8713 69.0515 26.8268 69.0411 26.7833 69.0298C26.6715 69.0039 26.5607 68.9759 26.4499 68.9479C26.3515 68.9231 26.2542 68.8972 26.1558 68.8713C23.6205 68.2116 21.168 67.267 18.8452 66.0558C18.8338 66.0496 18.8213 66.0434 18.81 66.0371C18.7427 66.0019 18.6764 65.9678 18.6101 65.9315C24.294 64.6071 33.2759 62.5185 41.0701 60.7292C41.2886 60.6795 41.5057 60.6298 41.7215 60.5801C44.6002 59.9194 47.2966 59.3043 49.5778 58.7897C49.8139 58.7369 50.0452 58.6851 50.2716 58.6343C52.7227 58.0835 54.6259 57.6651 55.6583 57.4559C55.9366 57.3924 56.2179 57.3429 56.5012 57.3079L58.6561 60.6474L58.6602 60.6536Z" fill="#2F2E41"/>
<path d="M16.7183 26.381C19.5156 26.381 21.7833 24.1133 21.7833 21.316C21.7833 18.5186 19.5156 16.251 16.7183 16.251C13.921 16.251 11.6533 18.5186 11.6533 21.316C11.6533 24.1133 13.921 26.381 16.7183 26.381Z" fill="#2F2E41"/>
<path d="M47.8316 24.9337C50.6289 24.9337 52.8966 22.666 52.8966 19.8687C52.8966 17.0714 50.6289 14.8037 47.8316 14.8037C45.0343 14.8037 42.7666 17.0714 42.7666 19.8687C42.7666 22.666 45.0343 24.9337 47.8316 24.9337Z" fill="#2F2E41"/>
<path d="M42.4049 17.6981C42.4051 16.4488 42.8669 15.2437 43.7017 14.3143C44.5364 13.3849 45.6852 12.7968 46.9272 12.663C46.2199 12.5857 45.5042 12.6584 44.8268 12.8762C44.1494 13.094 43.5255 13.4521 42.9958 13.9271C42.466 14.4022 42.0423 14.9835 41.7522 15.6332C41.4622 16.2829 41.3123 16.9865 41.3123 17.6981C41.3123 18.4096 41.4622 19.1132 41.7522 19.7629C42.0423 20.4126 42.466 20.9939 42.9958 21.469C43.5255 21.944 44.1494 22.3021 44.8268 22.5199C45.5042 22.7377 46.2199 22.8104 46.9272 22.7331C45.6852 22.5993 44.5364 22.0112 43.7017 21.0818C42.8669 20.1524 42.4051 18.9473 42.4049 17.6981Z" fill="#2F2E41"/>
<path d="M11.0587 25.4128C10.1845 24.5204 9.671 23.3364 9.6168 22.0883C9.5626 20.8403 9.97155 19.6162 10.7651 18.6514C10.2058 19.0912 9.74539 19.644 9.41398 20.2736C9.08257 20.9033 8.88755 21.5957 8.84162 22.3058C8.79569 23.0158 8.89988 23.7276 9.14741 24.3947C9.39493 25.0618 9.78024 25.6693 10.2782 26.1775C10.7762 26.6857 11.3757 27.0834 12.0376 27.3444C12.6995 27.6055 13.409 27.7242 14.1199 27.6928C14.8307 27.6613 15.527 27.4805 16.1632 27.162C16.7995 26.8435 17.3615 26.3945 17.8127 25.8443C16.8319 26.6179 15.5997 27.0018 14.3531 26.9222C13.1064 26.8425 11.9331 26.305 11.0587 25.4128Z" fill="#2F2E41"/>
<path d="M32.2749 25.6575C26.2807 25.6575 21.4214 28.4921 21.4214 31.9887C21.4214 33.5533 22.3981 34.9832 24.0105 36.0878L26.0999 34.5739L25.5317 36.9457C25.7674 37.0549 26.0082 37.1607 26.2593 37.2584L29.3807 33.6168V38.0905C30.3378 38.2439 31.3056 38.3206 32.2749 38.32C38.2692 38.32 43.1285 35.4854 43.1285 31.9887C43.1285 28.4921 38.2692 25.6575 32.2749 25.6575Z" fill="#2F2E41"/>
<path d="M42.7667 19.8689C42.7667 19.8689 41.9801 23.4867 46.8957 24.9339L42.7667 19.8689Z" fill="#2F2E41"/>
<path d="M21.4211 20.5273C21.4211 20.5273 23.23 24.5721 17.8032 26.381L21.4211 20.5273Z" fill="#2F2E41"/>
<path d="M24.104 43.6727C24.5604 43.5449 24.6818 42.5534 24.3752 41.4581C24.0685 40.3628 23.45 39.5784 22.9936 39.7062C22.5372 39.8339 22.4158 40.8254 22.7224 41.9208C23.0291 43.0161 23.6476 43.8004 24.104 43.6727Z" fill="#D0CDE1"/>
<path d="M45.0003 40.026C45.0702 38.8907 44.7434 37.9467 44.2704 37.9176C43.7973 37.8885 43.3572 38.7852 43.2872 39.9205C43.2173 41.0558 43.5441 41.9997 44.0172 42.0288C44.4902 42.058 44.9304 41.1613 45.0003 40.026Z" fill="#D0CDE1"/>
</g>
<defs>
<linearGradient id="paint0_linear" x1="-42.6632" y1="-79.5266" x2="64.3043" y2="76.213" gradientUnits="userSpaceOnUse">
<stop offset="0.375" stop-color="#00D1FF"/>
<stop offset="1" stop-color="#5FB14D"/>
</linearGradient>
<clipPath id="clip0">
<rect width="70" height="70" fill="white"/>
</clipPath>
</defs>
</svg>