<svg width="70" height="70" viewBox="0 0 70 70" fill="none" xmlns="http://www.w3.org/2000/svg">
<g clip-path="url(#clip0)">
<path d="M70 35C70.0062 39.7379 69.0472 44.4274 67.1814 48.7825L67.0654 49.0497C63.9092 56.2297 58.4366 62.1441 51.5225 65.847C44.6085 69.5498 36.6525 70.8272 28.9268 69.4749C28.7166 69.4377 28.5067 69.399 28.2972 69.359C26.1323 68.9393 24.0123 68.3141 21.9661 67.492C21.6337 67.3584 21.3037 67.22 20.9762 67.0767C20.7525 66.9794 20.5288 66.8789 20.3072 66.7754C14.2453 63.9659 9.11296 59.482 5.51502 53.8521C1.91708 48.2223 0.00355867 41.6813 0 35C0 15.6703 15.6703 0 35 0C54.3297 0 70 15.6703 70 35Z" fill="#9F4DB1"/>
<path d="M70 35C70.0062 39.7379 69.0472 44.4274 67.1814 48.7825L67.0654 49.0497C63.9092 56.2297 58.4366 62.1441 51.5225 65.847C44.6085 69.5498 36.6525 70.8272 28.9268 69.4749C28.7166 69.4377 28.5067 69.399 28.2972 69.359C26.1323 68.9393 24.0123 68.3141 21.9661 67.492C21.6337 67.3584 21.3037 67.22 20.9762 67.0767C20.7525 66.9794 20.5288 66.8789 20.3072 66.7754C14.2453 63.9659 9.11296 59.482 5.51502 53.8521C1.91708 48.2223 0.00355867 41.6813 0 35C0 15.6703 15.6703 0 35 0C54.3297 0 70 15.6703 70 35Z" fill="url(#paint0_linear)"/>
<path opacity="0.2" d="M28.9266 69.4749C28.7164 69.4377 28.5065 69.399 28.297 69.359C28.1603 65.392 27.6913 57.2498 26.0914 48.7224C25.2164 44.0554 24.0018 39.2714 22.317 34.9948C21.7398 33.515 21.0806 32.0686 20.3423 30.6622C18.6399 27.447 16.5751 24.7402 14.0713 22.9063L14.4399 22.4031C16.5223 23.9294 18.3938 26.0722 20.0544 28.8315C20.5525 29.6578 21.0309 30.5394 21.4896 31.4761C21.9815 32.4785 22.4506 33.5427 22.8969 34.6686C23.1816 35.3852 23.4567 36.1266 23.7222 36.8929C24.8778 40.2199 25.8601 44.0161 26.6692 48.2813C26.8484 49.2236 27.0189 50.1891 27.1808 51.1776C28.4347 58.8372 28.8127 65.919 28.9266 69.4749Z" fill="black"/>
<path opacity="0.2" d="M20.9761 67.0769C20.7524 66.9796 20.5288 66.8791 20.3072 66.7756C20.0908 64.425 19.6931 61.509 18.9662 58.7411C18.6478 57.498 18.2391 56.2798 17.7433 55.0962C16.9138 53.1546 15.84 51.504 14.4514 50.4861L14.8201 49.9839C16.2739 51.0484 17.3953 52.7311 18.2621 54.6996C19.2385 56.9176 19.8899 59.4991 20.3237 61.9657C20.6458 63.7975 20.8487 65.5671 20.9761 67.0769Z" fill="black"/>
<path opacity="0.2" d="M10.5893 22.892C12.3101 22.892 13.705 21.4971 13.705 19.7763C13.705 18.0556 12.3101 16.6606 10.5893 16.6606C8.86857 16.6606 7.47363 18.0556 7.47363 19.7763C7.47363 21.4971 8.86857 22.892 10.5893 22.892Z" fill="black"/>
<path opacity="0.2" d="M11.5927 49.7123C13.3135 49.7123 14.7084 48.3174 14.7084 46.5966C14.7084 44.8759 13.3135 43.481 11.5927 43.481C9.87199 43.481 8.47705 44.8759 8.47705 46.5966C8.47705 48.3174 9.87199 49.7123 11.5927 49.7123Z" fill="black"/>
<path opacity="0.2" d="M22.9586 25.0096C22.2979 28.7371 23.7564 32.1124 23.7564 32.1124C23.7564 32.1124 26.2861 29.444 26.9468 25.7165C27.6075 21.989 26.149 18.6138 26.149 18.6138C26.149 18.6138 23.6193 21.2821 22.9586 25.0096Z" fill="black"/>
<path opacity="0.2" d="M12.6038 33.8579C16.1592 35.1579 19.7319 34.3236 19.7319 34.3236C19.7319 34.3236 17.5402 31.3815 13.9848 30.0814C10.4294 28.7813 6.85669 29.6156 6.85669 29.6156C6.85669 29.6156 9.04844 32.5578 12.6038 33.8579Z" fill="black"/>
<path opacity="0.2" d="M12.0008 57.6084C14.4929 58.5197 17.0006 57.9252 17.0006 57.9252C17.0006 57.9252 15.4679 55.8534 12.9758 54.9421C10.4838 54.0309 7.97607 54.6253 7.97607 54.6253C7.97607 54.6253 9.50879 56.6972 12.0008 57.6084Z" fill="black"/>
<path d="M34.9283 42.7506C42.4641 42.7506 48.5731 36.6416 48.5731 29.1058C48.5731 21.5699 42.4641 15.4609 34.9283 15.4609C27.3924 15.4609 21.2834 21.5699 21.2834 29.1058C21.2834 36.6416 27.3924 42.7506 34.9283 42.7506Z" fill="#D0CDE1"/>
<path d="M29.5979 39.5526C29.5979 39.5526 31.3035 47.6542 31.3035 48.507C31.3035 49.3598 39.4051 53.1974 39.4051 53.1974L46.6539 51.9182L49.2124 44.243C49.2124 44.243 44.9483 37.847 44.9483 35.2886L29.5979 39.5526Z" fill="#D0CDE1"/>
<path d="M67.1815 48.7825L67.0655 49.0496C63.9094 56.2297 58.4367 62.144 51.5226 65.8469C44.6086 69.5497 36.6526 70.8271 28.9269 69.4748C28.7167 69.4376 28.5068 69.3989 28.2973 69.3589C26.1324 68.9392 24.0124 68.314 21.9662 67.4919C21.6338 67.3583 21.3039 67.2199 20.9763 67.0766C20.7526 66.9793 20.529 66.8788 20.3074 66.7753C18.2988 65.8448 16.3831 64.7255 14.5862 63.4327L12.9688 58.7409L13.8779 58.0471L15.748 56.6191L17.7435 55.0959L18.2622 54.6993L26.0917 48.7224L26.6695 48.2813L30.739 45.1748L30.7401 45.1737C30.7401 45.1737 35.1409 52.3446 41.5372 50.2125C47.9335 48.0804 47.7938 41.9668 47.7938 41.9668L67.1815 48.7825Z" fill="#2F2E41"/>
<path d="M23.0955 18.1127C23.0955 18.1127 27.4277 8.72631 35.7311 10.8924C44.0344 13.0585 48.7276 16.3076 49.0886 19.5568C49.4496 22.8059 48.9081 27.6796 48.9081 27.6796C48.9081 27.6796 48.0056 21.0008 42.2293 22.4449C36.4531 23.889 27.4277 22.8059 27.4277 22.8059L25.9837 35.8025C25.9837 35.8025 24.3591 33.4559 22.554 34.8999C20.7489 36.344 17.3193 21.0008 23.0955 18.1127Z" fill="#2F2E41"/>
<path d="M21.9662 67.492C21.6338 67.3584 21.3038 67.22 20.9762 67.0768C20.7525 66.9794 20.5289 66.879 20.3073 66.7754C16.9853 65.235 13.9249 63.184 11.2373 60.697C12.1889 59.4006 12.9687 58.741 12.9687 58.741H19.365L20.3238 61.9655L21.9662 67.492Z" fill="#2F2E41"/>
<path d="M61.5784 48.0803L67.0655 49.0496C65.5971 52.3948 63.6139 55.4894 61.188 58.221L61.5784 48.0803Z" fill="#2F2E41"/>
</g>
<defs>
<linearGradient id="paint0_linear" x1="-1.87153" y1="1.58766e-06" x2="93.7487" y2="30.9144" gradientUnits="userSpaceOnUse">
<stop stop-color="#9F4DB1"/>
<stop offset="1" stop-color="#7C23ED"/>
</linearGradient>
<clipPath id="clip0">
<rect width="70" height="70" fill="white"/>
</clipPath>
</defs>
</svg>