<svg viewBox="0 0 822 538" fill="none" xmlns="http://www.w3.org/2000/svg" preserveAspectRatio="xMidYMid meet">
<path d="M428.32 300.934H371.547V302.639H380.401V318.836H382.232V302.639H416.719V318.836H418.55V302.639H428.32V300.934Z" fill="#3F3D56"/>
<path d="M449.382 259.163H434.73V272.802H441.522V318.761H443.354V272.802H449.382V259.163Z" fill="#3F3D56"/>
<path d="M428.432 295.833H371.658V297.538H428.432V295.833Z" fill="#3F3D56"/>
<path d="M428.432 291.571H371.658V293.276H428.432V291.571Z" fill="#3F3D56"/>
<path d="M428.432 287.308H371.658V289.013H428.432V287.308Z" fill="#3F3D56"/>
<path d="M573.918 323.75H572.087C572.087 242.9 501.432 177.123 414.585 177.123C327.738 177.123 257.083 242.9 257.083 323.75H255.251C255.251 241.96 326.728 175.418 414.585 175.418C502.442 175.418 573.918 241.96 573.918 323.75Z" fill="#3F3D56"/>
<path d="M149.719 278.763C232.406 278.763 299.437 216.359 299.437 139.381C299.437 62.4031 232.406 0 149.719 0C67.0313 0 0 62.4031 0 139.381C0 216.359 67.0313 278.763 149.719 278.763Z" fill="#9F4DB1"/>
<path d="M149.719 278.763C232.406 278.763 299.437 216.359 299.437 139.381C299.437 62.4031 232.406 0 149.719 0C67.0313 0 0 62.4031 0 139.381C0 216.359 67.0313 278.763 149.719 278.763Z" fill="url(#paint0_linear)"/>
<path opacity="0.2" d="M261.089 46.2856C275.054 76.6976 276.948 110.742 266.433 142.334C255.919 173.927 233.679 201.01 203.69 218.743C173.701 236.476 137.915 243.704 102.728 239.135C67.5414 234.566 35.246 218.498 11.6132 193.803C20.1443 212.383 32.9126 229.015 49.0335 242.545C65.1544 256.076 84.2425 266.182 104.975 272.162C125.708 278.143 147.59 279.857 169.104 277.183C190.619 274.51 211.252 267.514 229.573 256.68C247.895 245.846 263.468 231.433 275.213 214.44C286.957 197.447 294.593 178.28 297.591 158.267C300.589 138.254 298.877 117.874 292.574 98.5377C286.271 79.2017 275.528 61.3726 261.089 46.2856Z" fill="black"/>
<path d="M150.13 139.381H150.541L157.945 534.55H142.315L150.13 139.381Z" fill="#3F3D56"/>
<path d="M177.391 354.627L173.942 348.529L149.193 360.659L152.642 366.758L177.391 354.627Z" fill="#3F3D56"/>
<path d="M700.822 311.326C767.747 311.326 822 260.819 822 198.515C822 136.211 767.747 85.7036 700.822 85.7036C633.898 85.7036 579.644 136.211 579.644 198.515C579.644 260.819 633.898 311.326 700.822 311.326Z" fill="#9F4DB1"/>
<path d="M700.822 311.326C767.747 311.326 822 260.819 822 198.515C822 136.211 767.747 85.7036 700.822 85.7036C633.898 85.7036 579.644 136.211 579.644 198.515C579.644 260.819 633.898 311.326 700.822 311.326Z" fill="url(#paint1_linear)"/>
<path opacity="0.2" d="M790.962 123.166C802.265 147.78 803.798 175.334 795.288 200.905C786.777 226.475 768.778 248.395 744.505 262.747C720.233 277.1 691.269 282.95 662.79 279.252C634.31 275.554 608.171 262.549 589.044 242.562C595.949 257.6 606.283 271.061 619.331 282.012C632.378 292.964 647.828 301.143 664.608 305.984C681.389 310.825 699.099 312.211 716.512 310.047C733.926 307.884 750.625 302.221 765.454 293.453C780.284 284.684 792.888 273.019 802.394 259.265C811.899 245.511 818.079 229.998 820.506 213.8C822.932 197.602 821.546 181.107 816.445 165.457C811.344 149.807 802.649 135.376 790.962 123.166Z" fill="black"/>
<path d="M701.155 198.514H701.488L707.48 518.353H694.83L701.155 198.514Z" fill="#3F3D56"/>
<path d="M723.219 372.729L720.428 367.792L700.397 377.61L703.188 382.547L723.219 372.729Z" fill="#3F3D56"/>
<path d="M343.237 295.658C353.773 295.658 362.314 287.707 362.314 277.899C362.314 268.091 353.773 260.14 343.237 260.14C332.702 260.14 324.161 268.091 324.161 277.899C324.161 287.707 332.702 295.658 343.237 295.658Z" fill="#9F4DB1"/>
<path d="M343.237 295.658C353.773 295.658 362.314 287.707 362.314 277.899C362.314 268.091 353.773 260.14 343.237 260.14C332.702 260.14 324.161 268.091 324.161 277.899C324.161 287.707 332.702 295.658 343.237 295.658Z" fill="url(#paint2_linear)"/>
<path opacity="0.2" d="M357.428 266.037C359.207 269.912 359.448 274.25 358.109 278.275C356.769 282.3 353.935 285.751 350.114 288.011C346.293 290.27 341.733 291.191 337.25 290.609C332.767 290.027 328.652 287.979 325.641 284.833C326.728 287.2 328.355 289.319 330.409 291.043C332.463 292.767 334.895 294.055 337.536 294.817C340.178 295.579 342.966 295.797 345.707 295.457C348.449 295.116 351.078 294.225 353.412 292.844C355.747 291.464 357.731 289.627 359.227 287.462C360.724 285.297 361.696 282.855 362.078 280.305C362.46 277.755 362.242 275.158 361.439 272.695C360.636 270.231 359.267 267.959 357.428 266.037Z" fill="black"/>
<path d="M343.29 277.899H343.342L344.286 328.249H342.294L343.29 277.899Z" fill="#3F3D56"/>
<path d="M346.763 305.324L346.324 304.547L343.17 306.093L343.61 306.87L346.763 305.324Z" fill="#3F3D56"/>
<path d="M519.512 266.126C546.483 266.126 568.348 245.77 568.348 220.661C568.348 195.551 546.483 175.196 519.512 175.196C492.54 175.196 470.675 195.551 470.675 220.661C470.675 245.77 492.54 266.126 519.512 266.126Z" fill="#9F4DB1"/>
<path d="M519.512 266.126C546.483 266.126 568.348 245.77 568.348 220.661C568.348 195.551 546.483 175.196 519.512 175.196C492.54 175.196 470.675 195.551 470.675 220.661C470.675 245.77 492.54 266.126 519.512 266.126Z" fill="url(#paint3_linear)"/>
<path opacity="0.2" d="M555.84 190.293C560.395 200.214 561.013 211.318 557.583 221.624C554.153 231.929 546.899 240.763 537.117 246.547C527.334 252.332 515.661 254.689 504.184 253.199C492.706 251.709 482.172 246.468 474.463 238.412C477.246 244.473 481.411 249.898 486.669 254.312C491.928 258.725 498.154 262.022 504.917 263.973C511.68 265.923 518.817 266.482 525.835 265.61C532.853 264.738 539.583 262.456 545.56 258.922C551.536 255.388 556.616 250.687 560.447 245.144C564.278 239.601 566.769 233.349 567.746 226.821C568.724 220.293 568.166 213.645 566.11 207.338C564.054 201.03 560.549 195.215 555.84 190.293Z" fill="black"/>
<path d="M519.646 220.661H519.78L522.195 349.561H517.096L519.646 220.661Z" fill="#3F3D56"/>
<path d="M528.538 290.872L527.413 288.882L519.34 292.839L520.465 294.828L528.538 290.872Z" fill="#3F3D56"/>
<path d="M183.282 514.878C183.282 514.878 183.914 502.543 196.878 503.977L183.282 514.878Z" fill="#3F3D56"/>
<path d="M179.619 503.14C183.202 503.14 186.107 500.436 186.107 497.1C186.107 493.764 183.202 491.06 179.619 491.06C176.036 491.06 173.131 493.764 173.131 497.1C173.131 500.436 176.036 503.14 179.619 503.14Z" fill="#9F4DB1"/>
<path d="M180.395 507.271H178.563V519.205H180.395V507.271Z" fill="#3F3D56"/>
<path d="M229.067 486.746C229.067 486.746 229.7 474.411 242.663 475.844L229.067 486.746Z" fill="#3F3D56"/>
<path d="M225.405 475.007C228.988 475.007 231.893 472.303 231.893 468.967C231.893 465.632 228.988 462.927 225.405 462.927C221.821 462.927 218.917 465.632 218.917 468.967C218.917 472.303 221.821 475.007 225.405 475.007Z" fill="#9F4DB1"/>
<path d="M226.18 479.139H224.349V491.073H226.18V479.139Z" fill="#3F3D56"/>
<path d="M367.083 391.306C367.083 391.306 367.585 381.508 377.881 382.647L367.083 391.306Z" fill="#3F3D56"/>
<path d="M364.173 381.982C367.019 381.982 369.326 379.834 369.326 377.185C369.326 374.536 367.019 372.388 364.173 372.388C361.327 372.388 359.02 374.536 359.02 377.185C359.02 379.834 361.327 381.982 364.173 381.982Z" fill="#9F4DB1"/>
<path d="M364.789 385.263H363.335V394.743H364.789V385.263Z" fill="#3F3D56"/>
<path d="M568.539 360.616C568.539 360.616 569.041 350.819 579.337 351.958L568.539 360.616Z" fill="#3F3D56"/>
<path d="M565.629 351.293C568.475 351.293 570.782 349.145 570.782 346.496C570.782 343.846 568.475 341.698 565.629 341.698C562.783 341.698 560.476 343.846 560.476 346.496C560.476 349.145 562.783 351.293 565.629 351.293Z" fill="#9F4DB1"/>
<path d="M566.246 354.574H564.791V364.053H566.246V354.574Z" fill="#3F3D56"/>
<path d="M376.24 416.88C376.24 416.88 376.742 407.083 387.038 408.222L376.24 416.88Z" fill="#3F3D56"/>
<path d="M373.33 407.557C376.176 407.557 378.483 405.409 378.483 402.76C378.483 400.11 376.176 397.962 373.33 397.962C370.484 397.962 368.177 400.11 368.177 402.76C368.177 405.409 370.484 407.557 373.33 407.557Z" fill="#9F4DB1"/>
<path d="M373.947 410.838H372.492V420.317H373.947V410.838Z" fill="#3F3D56"/>
<path d="M354.262 435.635C354.262 435.635 354.765 425.838 365.061 426.976L354.262 435.635Z" fill="#3F3D56"/>
<path d="M351.353 426.311C354.199 426.311 356.506 424.164 356.506 421.514C356.506 418.865 354.199 416.717 351.353 416.717C348.507 416.717 346.2 418.865 346.2 421.514C346.2 424.164 348.507 426.311 351.353 426.311Z" fill="#9F4DB1"/>
<path d="M351.969 429.593H350.515V439.072H351.969V429.593Z" fill="#3F3D56"/>
<path d="M599.673 376.814C599.673 376.814 600.175 367.016 610.471 368.155L599.673 376.814Z" fill="#3F3D56"/>
<path d="M596.764 367.49C599.61 367.49 601.917 365.342 601.917 362.693C601.917 360.043 599.61 357.896 596.764 357.896C593.918 357.896 591.61 360.043 591.61 362.693C591.61 365.342 593.918 367.49 596.764 367.49Z" fill="#9F4DB1"/>
<path d="M597.38 370.771H595.925V380.25H597.38V370.771Z" fill="#3F3D56"/>
<path d="M302.983 398.126C302.983 398.126 303.485 388.328 313.781 389.467L302.983 398.126Z" fill="#3F3D56"/>
<path d="M300.074 388.802C302.92 388.802 305.227 386.654 305.227 384.005C305.227 381.355 302.92 379.208 300.074 379.208C297.228 379.208 294.92 381.355 294.92 384.005C294.92 386.654 297.228 388.802 300.074 388.802Z" fill="#9F4DB1"/>
<path d="M300.69 392.083H299.235V401.563H300.69V392.083Z" fill="#3F3D56"/>
<path d="M541.067 349.534C541.067 349.534 541.57 339.737 551.866 340.876L541.067 349.534Z" fill="#3F3D56"/>
<path d="M538.158 340.211C541.004 340.211 543.311 338.063 543.311 335.413C543.311 332.764 541.004 330.616 538.158 330.616C535.312 330.616 533.005 332.764 533.005 335.413C533.005 338.063 535.312 340.211 538.158 340.211Z" fill="#9F4DB1"/>
<path d="M538.774 343.492H537.32V352.971H538.774V343.492Z" fill="#3F3D56"/>
<path d="M103.615 517.435C103.615 517.435 104.248 505.1 117.211 506.534L103.615 517.435Z" fill="#3F3D56"/>
<path d="M99.9524 505.697C103.536 505.697 106.44 502.993 106.44 499.657C106.44 496.321 103.536 493.617 99.9524 493.617C96.3692 493.617 93.4644 496.321 93.4644 499.657C93.4644 502.993 96.3692 505.697 99.9524 505.697Z" fill="#9F4DB1"/>
<path d="M100.728 509.828H98.8967V521.763H100.728V509.828Z" fill="#3F3D56"/>
<path d="M734.539 514.026C734.539 514.026 735.172 501.69 748.135 503.124L734.539 514.026Z" fill="#3F3D56"/>
<path d="M730.876 502.287C734.46 502.287 737.364 499.583 737.364 496.247C737.364 492.911 734.46 490.207 730.876 490.207C727.293 490.207 724.388 492.911 724.388 496.247C724.388 499.583 727.293 502.287 730.876 502.287Z" fill="#9F4DB1"/>
<path d="M731.652 506.418H729.821V518.353H731.652V506.418Z" fill="#3F3D56"/>
<path d="M681.428 485.041C681.428 485.041 682.061 472.706 695.024 474.14L681.428 485.041Z" fill="#3F3D56"/>
<path d="M677.765 473.303C681.349 473.303 684.253 470.598 684.253 467.263C684.253 463.927 681.349 461.222 677.765 461.222C674.182 461.222 671.277 463.927 671.277 467.263C671.277 470.598 674.182 473.303 677.765 473.303Z" fill="#9F4DB1"/>
<path d="M678.541 477.434H676.709V489.368H678.541V477.434Z" fill="#3F3D56"/>
<path d="M674.102 528.518C674.102 528.518 674.735 516.183 687.698 517.616L674.102 528.518Z" fill="#3F3D56"/>
<path d="M670.44 516.779C674.023 516.779 676.928 514.075 676.928 510.739C676.928 507.403 674.023 504.699 670.44 504.699C666.856 504.699 663.952 507.403 663.952 510.739C663.952 514.075 666.856 516.779 670.44 516.779Z" fill="#9F4DB1"/>
<path d="M671.215 520.91H669.384V532.845H671.215V520.91Z" fill="#3F3D56"/>
<path d="M114.156 537.724C114.156 537.724 402.605 466.968 399.858 394.506C394.821 374.473 360.024 369.358 360.024 369.358C360.024 369.358 277.61 359.128 322.48 334.406C367.35 309.684 490.055 315.652 490.055 315.652C490.055 315.652 363.687 334.406 419.546 344.636C464.415 347.194 522.105 358.276 522.105 358.276C522.105 358.276 639.316 381.293 655.799 437.557C672.281 493.821 658.546 537.298 658.546 537.298L114.156 537.724Z" fill="#4EB76D"/>
<path d="M114.156 537.724C114.156 537.724 402.605 466.968 399.858 394.506C394.821 374.473 360.024 369.358 360.024 369.358C360.024 369.358 277.61 359.128 322.48 334.406C367.35 309.684 490.055 315.652 490.055 315.652C490.055 315.652 363.687 334.406 419.546 344.636C464.415 347.194 522.105 358.276 522.105 358.276C522.105 358.276 639.316 381.293 655.799 437.557C672.281 493.821 658.546 537.298 658.546 537.298L114.156 537.724Z" fill="url(#paint4_linear)"/>
<path d="M428.327 538L427.247 536.595C428.773 535.579 430.276 534.569 431.756 533.564L432.848 534.961C431.362 535.968 429.855 536.981 428.327 538Z" fill="white"/>
<path d="M441.79 528.78L440.67 527.403C443.669 525.289 446.622 523.162 449.448 521.082L450.599 522.437C447.763 524.525 444.799 526.659 441.79 528.78ZM459.256 515.909L458.071 514.579C460.973 512.335 463.812 510.079 466.506 507.875L467.732 509.173C465.024 511.387 462.172 513.654 459.256 515.909ZM475.988 502.201L474.718 500.94C477.488 498.522 480.159 496.101 482.656 493.743L483.977 494.956C481.463 497.329 478.775 499.767 475.988 502.201ZM491.631 487.394L490.25 486.24C492.795 483.601 495.202 480.958 497.404 478.385L498.855 479.462C496.631 482.061 494.2 484.73 491.631 487.394ZM505.506 471.096L503.973 470.122C506.131 467.179 508.077 464.241 509.758 461.39L511.386 462.221C509.676 465.121 507.698 468.107 505.506 471.096ZM516.177 452.771L514.45 452.14C515.796 448.978 516.85 445.715 517.601 442.387L519.419 442.734C518.647 446.16 517.562 449.517 516.177 452.771V452.771ZM518.655 432.301C518.6 428.943 518.098 425.604 517.162 422.361L518.955 421.91C519.93 425.292 520.452 428.772 520.51 432.272L518.655 432.301ZM513.103 413.035C511.34 410.072 509.272 407.276 506.926 404.687L508.349 403.578C510.772 406.254 512.91 409.143 514.73 412.205L513.103 413.035ZM499.258 397.396C496.501 395.134 493.612 393.016 490.605 391.049L491.676 389.638C494.739 391.641 497.681 393.8 500.489 396.103L499.258 397.396ZM481.305 385.489C478.269 383.828 474.994 382.17 471.574 380.562L472.409 379.02C475.866 380.644 479.175 382.319 482.245 383.999L481.305 385.489ZM461.543 376.147C458.313 374.81 454.872 373.466 451.317 372.149L452.003 370.544C455.581 371.869 459.044 373.223 462.297 374.567L461.543 376.147ZM440.911 368.477C437.605 367.361 434.07 366.215 430.406 365.072L430.995 363.434C434.673 364.582 438.223 365.732 441.544 366.852L440.911 368.477ZM419.819 361.871C416.585 360.921 413.103 359.922 409.175 358.814L409.713 357.161C413.648 358.27 417.136 359.272 420.377 360.223L419.819 361.871ZM398.496 355.83C394.742 354.785 391.163 353.786 387.812 352.826L388.358 351.174C391.705 352.135 395.279 353.132 399.028 354.175L398.496 355.83ZM377.17 349.622C373.6 348.525 370.108 347.216 366.718 345.705L367.552 344.161C370.869 345.639 374.284 346.917 377.777 347.988L377.17 349.622ZM363.156 338.296L361.833 337.085C363.524 335.485 366.871 333.919 372.063 332.298L372.653 333.936C367.812 335.447 364.617 336.915 363.155 338.296L363.156 338.296ZM383.269 331.122L382.821 329.445C386.03 328.701 389.687 327.922 393.688 327.131L394.073 328.821C390.093 329.608 386.458 330.382 383.269 331.122V331.122ZM404.954 326.787L404.606 325.089C408.026 324.481 411.708 323.851 415.552 323.216L415.877 324.917C412.04 325.551 408.366 326.179 404.954 326.787V326.787ZM426.824 323.163L426.518 321.458C430.015 320.913 433.674 320.354 437.496 319.784L437.79 321.49C433.971 322.06 430.316 322.618 426.824 323.163Z" fill="white"/>
<path d="M448.98 319.849L448.695 318.142C450.499 317.882 452.335 317.62 454.203 317.355L454.482 319.062C452.615 319.327 450.781 319.59 448.98 319.849Z" fill="white"/>
<path d="M490.051 144.363L498.481 138.086C491.933 137.414 489.242 140.739 488.141 143.37C483.025 141.393 477.455 143.985 477.455 143.985L494.321 149.685C493.471 147.569 491.989 145.723 490.051 144.363Z" fill="#3F3D56"/>
<path d="M333.465 192.955L341.895 186.678C335.346 186.005 332.655 189.33 331.554 191.962C326.438 189.984 320.869 192.576 320.869 192.576L337.735 198.277C336.884 196.161 335.403 194.315 333.465 192.955Z" fill="#3F3D56"/>
<path d="M374.672 92.3614L383.102 86.0847C376.553 85.4121 373.862 88.737 372.761 91.3687C367.645 89.391 362.076 91.9829 362.076 91.9829L378.942 97.6832C378.091 95.5675 376.61 93.7214 374.672 92.3614Z" fill="#3F3D56"/>
<defs>
<linearGradient id="paint0_linear" x1="-8.00579" y1="6.32257e-06" x2="395.157" y2="140.011" gradientUnits="userSpaceOnUse">
<stop stop-color="#9F4DB1"/>
<stop offset="1" stop-color="#7C23ED"/>
</linearGradient>
<linearGradient id="paint1_linear" x1="573.165" y1="85.7036" x2="899.473" y2="199.025" gradientUnits="userSpaceOnUse">
<stop stop-color="#9F4DB1"/>
<stop offset="1" stop-color="#7C23ED"/>
</linearGradient>
<linearGradient id="paint2_linear" x1="323.141" y1="260.14" x2="374.51" y2="277.979" gradientUnits="userSpaceOnUse">
<stop stop-color="#9F4DB1"/>
<stop offset="1" stop-color="#7C23ED"/>
</linearGradient>
<linearGradient id="paint3_linear" x1="468.063" y1="175.196" x2="599.571" y2="220.866" gradientUnits="userSpaceOnUse">
<stop stop-color="#9F4DB1"/>
<stop offset="1" stop-color="#7C23ED"/>
</linearGradient>
<linearGradient id="paint4_linear" x1="174.46" y1="-68.1971" x2="495.871" y2="599.039" gradientUnits="userSpaceOnUse">
<stop offset="0.375" stop-color="#00D1FF"/>
<stop offset="1" stop-color="#5FB14D"/>
</linearGradient>
</defs>
</svg>